<?xml version="1.0" encoding="utf-8"?>
<!-- Generator: Adobe Illustrator 16.0.0, SVG Export Plug-In . SVG Version: 6.00 Build 0)  -->
<!DOCTYPE svg PUBLIC "-//W3C//DTD SVG 1.1//EN" "http://www.w3.org/Graphics/SVG/1.1/DTD/svg11.dtd">
<svg version="1.1" id="Layer_1" xmlns="http://www.w3.org/2000/svg" xmlns:xlink="http://www.w3.org/1999/xlink" x="0px" y="0px"
	 width="533.784px" height="242.129px" viewBox="0 0 533.784 242.129" enable-background="new 0 0 533.784 242.129"
	 xml:space="preserve">
<g>
	<rect fill="#44485B" width="533.783" height="242.129"/>
	<g>
		<linearGradient id="SVGID_1_" gradientUnits="userSpaceOnUse" x1="92.0786" y1="121.0649" x2="209.688" y2="121.0649">
			<stop  offset="0" style="stop-color:#F05757"/>
			<stop  offset="1" style="stop-color:#ED3235"/>
		</linearGradient>
		<polygon fill="url(#SVGID_1_)" points="147.767,87.934 160.056,75.645 184.415,51.286 209.688,51.286 209.688,38.998 
			196.703,38.998 179.327,38.998 179.079,38.998 179.079,39.246 160.056,58.269 160.056,51.286 160.056,38.998 147.767,38.998 
			104.366,38.998 92.079,38.998 92.079,51.286 92.079,190.844 92.079,203.132 104.366,203.132 147.767,203.132 160.056,203.132 
			160.056,190.844 160.056,183.862 179.079,202.884 179.079,203.132 179.327,203.132 196.703,203.132 209.688,203.132 
			209.688,190.844 184.415,190.844 160.056,166.485 147.767,154.196 147.767,171.573 147.767,190.844 104.366,190.844 
			104.366,51.286 147.767,51.286 147.767,70.558 		"/>
		<linearGradient id="SVGID_2_" gradientUnits="userSpaceOnUse" x1="162.688" y1="119.167" x2="323.0269" y2="119.167">
			<stop  offset="0" style="stop-color:#7FC46A"/>
			<stop  offset="1" style="stop-color:#63BE7D"/>
		</linearGradient>
		<path fill="url(#SVGID_2_)" d="M321.645,112.041l0.432-0.431l-0.6,0c-2-4.664-5.798-8.365-10.519-10.257
			c-2.206-0.883-4.606-1.382-7.128-1.382c-7.917,0-14.711,4.796-17.646,11.64l-86.056,0l35.601-35.601
			c2.207,0.883,4.607,1.381,7.127,1.382c10.604,0,19.197-8.595,19.197-19.197c0-2.521-0.498-4.921-1.383-7.126
			c-1.947-4.864-5.822-8.739-10.687-10.687c-2.205-0.884-4.605-1.383-7.128-1.382c-10.601,0-19.195,8.594-19.195,19.195
			c0.001,2.521,0.499,4.922,1.383,7.127l-36.033,36.033c-2.205-0.883-4.605-1.382-7.127-1.383c-7.918,0-14.711,4.796-17.646,11.639
			c-0.995,2.321-1.549,4.874-1.549,7.559c0,2.521,0.498,4.921,1.382,7.126l-0.431,0.432h0.598c2,4.664,5.799,8.365,10.52,10.256
			c2.206,0.883,4.606,1.383,7.127,1.383c7.918,0,14.712-4.797,17.646-11.639l86.057-0.001l-35.602,35.603
			c-2.206-0.883-4.607-1.381-7.128-1.383c-10.603,0.001-19.196,8.596-19.196,19.197c0,2.521,0.5,4.921,1.383,7.127
			c1.947,4.864,5.822,8.738,10.688,10.688c2.205,0.883,4.605,1.381,7.126,1.381c10.603,0,19.196-8.594,19.197-19.195
			c0-2.521-0.499-4.922-1.382-7.127l36.032-36.033c2.204,0.884,4.606,1.383,7.127,1.383c7.917-0.001,14.712-4.797,17.646-11.64
			c0.995-2.319,1.55-4.873,1.55-7.556C323.027,116.647,322.528,114.247,321.645,112.041z"/>
		<linearGradient id="SVGID_3_" gradientUnits="userSpaceOnUse" x1="277.5688" y1="121.0649" x2="441.7036" y2="121.0649">
			<stop  offset="0" style="stop-color:#F05757"/>
			<stop  offset="1" style="stop-color:#ED3235"/>
		</linearGradient>
		<polygon fill="url(#SVGID_3_)" points="429.417,38.998 393.636,38.998 381.348,38.998 277.569,38.998 277.569,51.285 
			381.348,51.285 393.636,51.285 429.417,51.285 429.417,94.998 393.636,94.998 381.348,94.998 381.348,107.285 381.348,190.845 
			337.948,190.845 337.948,171.573 337.948,154.197 325.659,166.486 325.636,166.508 325.636,183.884 325.659,183.862 
			325.659,190.845 325.659,203.132 337.948,203.132 381.348,203.132 393.636,203.132 393.636,190.845 393.636,107.285 
			429.417,107.285 441.704,107.285 441.704,94.998 441.704,51.285 441.704,38.998 		"/>
	</g>
	<g>
		<polygon fill="#282A36" points="533.784,19.079 533.784,0 533.783,0 514.704,0 495.624,0 495.624,19.079 514.704,19.079 
			514.704,223.051 19.079,223.051 19.079,19.079 400.223,19.079 400.223,0 19.079,0 0,0 0,0 0,242.129 0,242.129 19.079,242.129 
			514.704,242.129 533.783,242.129 533.784,242.129 533.784,223.051 533.783,223.051 533.783,19.079 		"/>
		<rect x="419.303" fill="#282A36" width="19.08" height="19.079"/>
		<rect x="457.463" fill="#282A36" width="19.08" height="19.079"/>
	</g>
	
		<linearGradient id="SVGID_4_" gradientUnits="userSpaceOnUse" x1="91.4746" y1="-539.3989" x2="110.5532" y2="-539.3989" gradientTransform="matrix(0 1 -1 0 -72.3955 -91.4746)">
		<stop  offset="0" style="stop-color:#F05757"/>
		<stop  offset="1" style="stop-color:#ED3235"/>
	</linearGradient>
	<rect x="457.463" fill="url(#SVGID_4_)" width="19.08" height="19.079"/>
	
		<linearGradient id="SVGID_5_" gradientUnits="userSpaceOnUse" x1="91.4746" y1="-501.2388" x2="110.5532" y2="-501.2388" gradientTransform="matrix(0 1 -1 0 -72.3955 -91.4746)">
		<stop  offset="0" style="stop-color:#63BE7D"/>
		<stop  offset="1" style="stop-color:#63BE7D"/>
	</linearGradient>
	<rect x="419.303" fill="url(#SVGID_5_)" width="19.08" height="19.079"/>
</g>
</svg>
